<?xml version="1.0" encoding="utf-8"?>
<!-- Generator: Adobe Illustrator 21.0.0, SVG Export Plug-In . SVG Version: 6.00 Build 0)  -->
<svg version="1.1" id="Слой_1" xmlns="http://www.w3.org/2000/svg" xmlns:xlink="http://www.w3.org/1999/xlink" x="0px" y="0px"
	 viewBox="0 0 60 60" style="enable-background:new 0 0 60 60;" xml:space="preserve">
<g>
	<g>
		<path d="M13.2,26H7.7c-1.2,0-2.2,1-2.2,2.2v24.5c0,1.2,1,2.2,2.2,2.2h5.5c1.2,0,2.2-1,2.2-2.2V28.3C15.4,27,14.4,26,13.2,26z
			 M26.2,32.7h-5.5c-1.2,0-2.2,1-2.2,2.2v17.8c0,1.2,1,2.2,2.2,2.2h5.5c1.2,0,2.2-1,2.2-2.2V35C28.4,33.7,27.4,32.7,26.2,32.7z
			 M39.2,32.7h-5.5c-1.2,0-2.2,1-2.2,2.2v17.8c0,1.2,1,2.2,2.2,2.2h5.5c1.2,0,2.2-1,2.2-2.2V35C41.5,33.7,40.5,32.7,39.2,32.7z
			 M52.3,26h-5.5c-1.2,0-2.2,1-2.2,2.2v24.5c0,1.2,1,2.2,2.2,2.2h5.5c1.2,0,2.2-1,2.2-2.2V28.3C54.5,27,53.5,26,52.3,26z M30.6,19.4
			v4c1.2-0.1,2.5-0.6,2.5-2C33.1,20.1,31.7,19.7,30.6,19.4z M27.2,14.6c0,1,0.8,1.6,2.3,1.9v-3.6C28.1,12.9,27.2,13.7,27.2,14.6z
			 M30,6c-6.8,0-12.2,5.5-12.2,12.2c0,6.8,5.5,12.2,12.2,12.2c6.8,0,12.2-5.5,12.2-12.2C42.2,11.5,36.8,6,30,6z M30.6,25.5v1.3
			c0,0.3-0.3,0.7-0.6,0.7c-0.3,0-0.6-0.3-0.6-0.7v-1.3c-3.4-0.1-5.1-2.1-5.1-3.7c0-0.8,0.5-1.3,1.3-1.3c2.3,0,0.5,2.8,3.9,2.9v-4.2
			c-3-0.5-4.8-1.9-4.8-4.1c0-2.8,2.3-4.2,4.8-4.3V9.8c0-0.3,0.3-0.7,0.6-0.7c0.3,0,0.6,0.3,0.6,0.7v1.1c1.6,0,4.8,1,4.8,3
			c0,0.8-0.6,1.3-1.3,1.3c-1.3,0-1.3-2.2-3.5-2.2v3.8c2.7,0.6,5,1.4,5,4.5C35.7,23.9,33.7,25.3,30.6,25.5z"/>
	</g>
</g>
</svg>
