<?xml version="1.0" encoding="utf-8"?>
<!-- Generator: Adobe Illustrator 21.0.0, SVG Export Plug-In . SVG Version: 6.00 Build 0)  -->
<svg version="1.1" id="Слой_1" xmlns="http://www.w3.org/2000/svg" xmlns:xlink="http://www.w3.org/1999/xlink" x="0px" y="0px"
	 viewBox="0 0 60 60" style="enable-background:new 0 0 60 60;" xml:space="preserve">
<g>
	<g>
		<path d="M32.2,40.6h-0.3c-1.6,0-3.2-0.3-4.7-0.9c-0.3-0.1-0.6,0-0.8,0.2l-5.6,5.6c-1.7,1.7-4.5,1.7-6.2,0c-1.7-1.7-1.7-4.5,0-6.2
			l9.4-9.4c1.7-1.7,4.5-1.7,6.2,0c1.2,1.1,3,1.1,4.1,0c0.5-0.5,0.8-1.2,0.9-1.9c0.1-0.8-0.3-1.7-0.9-2.3c-0.5-0.5-1.1-1-1.7-1.4
			c-1.7-1.1-3.6-1.6-5.6-1.6c-2.7,0-5.4,1.1-7.3,3L10.5,35c-1.9,1.9-3,4.5-3,7.3c0,5.7,4.6,10.3,10.3,10.3c2.7,0,5.3-1.1,7.3-3
			l7.7-7.7c0.1-0.1,0.2-0.3,0.2-0.5C32.9,40.9,32.6,40.6,32.2,40.6z M48.5,11.5c-4-4-10.5-4-14.6,0l-7.7,7.7
			c-0.2,0.2-0.3,0.5-0.2,0.8c0.1,0.3,0.4,0.5,0.7,0.4h0.3c1.6,0,3.2,0.3,4.7,0.9c0.3,0.1,0.6,0,0.8-0.2l5.5-5.5
			c1.7-1.7,4.5-1.7,6.2,0c1.7,1.7,1.7,4.5,0,6.2l-6.9,6.9l-0.1,0.1L35,31.2c-1.7,1.7-4.5,1.7-6.2,0c-1.2-1.1-3-1.1-4.1,0
			c-0.5,0.5-0.8,1.2-0.9,1.9c-0.1,0.8,0.3,1.7,0.9,2.3c0.9,0.9,1.8,1.6,2.9,2.1c0.2,0.1,0.3,0.1,0.5,0.2c0.2,0.1,0.3,0.1,0.5,0.2
			c0.2,0.1,0.3,0.1,0.5,0.2l0.4,0.1c0.3,0.1,0.6,0.1,0.9,0.2c0.4,0.1,0.7,0.1,1.1,0.1h0.6l0.4-0.1c0.2,0,0.3,0,0.5,0h0.2l0.5-0.1
			l0.2,0l0.4-0.1h0.1c1.8-0.5,3.5-1.4,4.8-2.7l9.4-9.4C52.6,22,52.6,15.5,48.5,11.5z"/>
	</g>
</g>
</svg>
