<?xml version="1.0" encoding="utf-8"?>
<!-- Generator: Adobe Illustrator 21.0.0, SVG Export Plug-In . SVG Version: 6.00 Build 0)  -->
<svg version="1.1" id="Слой_1" xmlns="http://www.w3.org/2000/svg" xmlns:xlink="http://www.w3.org/1999/xlink" x="0px" y="0px"
	 viewBox="0 0 60 60" style="enable-background:new 0 0 60 60;" xml:space="preserve">
<style type="text/css">
	.st0{display:none;}
	.st1{display:inline;}
</style>
<path class="st0" d="M49.7,11H11.2c-2.6,0-4.8,2.2-4.8,4.8v28.8c0,2.6,2.2,4.8,4.8,4.8h38.4c2.6,0,4.8-2.2,4.8-4.8V15.8
	C54.5,13.2,52.3,11,49.7,11z M49.7,44.6H11.2V15.8h38.4V44.6z M28.1,35.3H16v4.3h12V35.3z M28.1,28.1H16v4.3h12V28.1z M28.1,20.8H16
	v4.3h12V20.8z M44.6,36.2c0,0-4.1-1.1-4.1-3.2c0-2,2.6-2.8,2.6-6.9c0-3.3-1-5.3-4.3-5.3c-3.3,0-4.3,2-4.3,5.3c0,4.1,2.6,4.9,2.6,6.9
	c0,2.1-4.1,3.2-4.1,3.2c-0.2,0-0.2,3.4-0.2,3.4h12C44.9,39.6,44.9,36.2,44.6,36.2z"/>
<g>
	<g>
		<path d="M45.9,14.9H13.4v27.4h32.5V14.9z M38.2,29.7h-9.6c-0.5,1.9-2.2,3.3-4.2,3.3C22,32.9,20,31,20,28.6c0-2.4,2-4.3,4.4-4.3
			c2,0,3.8,1.4,4.2,3.3h9.6V29.7z M8,9.4v38.4h3.2V51H15v-3.2h29.4V51h3.8v-3.2h3.2V9.4H8z M48.1,44.4H11.2V12.8h36.8V44.4z"/>
	</g>
</g>
<g class="st0">
	<g class="st1">
		<path d="M30.4,48.6l0-6.9l10.8-10.8V9.4H9.6V51h31.6v-6.4l-3.9,3.9L30.4,48.6z M20.5,14.3h10v2.4h-10V14.3z M14.5,19.2h21.9v2.4
			H14.5V19.2z M14.5,24h21.9v2.4H14.5V24z M14.5,28.9h21.9v2.4H14.5V28.9z M20.5,46.1h-5.9v-2.4h5.9V46.1z M22.9,41.3h-8.4v-2.4h8.4
			V41.3z M32.9,46.2l3.4,0l14.9-14.9l-3.5-3.5L32.9,42.7L32.9,46.2z"/>
	</g>
</g>
<g class="st0">
	<g class="st1">
		<path d="M18.2,36.7c0-2.9,0-14.3,0-14.3s0-0.6,0.3-1.4c-3,0-6.1,0-6.1,0s-2.9,0-2.9,2.9v10c0,2.9,2.9,2.9,2.9,2.9V51h8.6V39.6
			C21.1,39.6,18.2,39.6,18.2,36.7z M18.2,19.6c0.7,0,1.4-0.2,2-0.5c0.1-0.1,0.2-0.1,0.3-0.1c1.2-0.8,2-2.1,2-3.6
			c0-2.4-1.9-4.3-4.3-4.3s-4.3,1.9-4.3,4.3C13.9,17.7,15.8,19.6,18.2,19.6z M46.8,21h-6.1c0.3,0.8,0.3,1.4,0.3,1.4s0,11.4,0,14.3
			c0,2.9-2.9,2.9-2.9,2.9V51h8.6V36.7c0,0,2.9,0,2.9-2.9c0-2.9,0-10,0-10S49.7,21,46.8,21z M38.8,18.9c0.1,0.1,0.2,0.1,0.3,0.2
			c0.6,0.3,1.3,0.5,2,0.5c2.4,0,4.3-1.9,4.3-4.3c0-2.4-1.9-4.3-4.3-4.3c-2.4,0-4.3,1.9-4.3,4.3C36.8,16.8,37.6,18.1,38.8,18.9z
			 M29.7,19.6c2.4,0,4.3-1.9,4.3-4.3c0-2.4-1.9-4.3-4.3-4.3c-2.4,0-4.3,1.9-4.3,4.3C25.4,17.7,27.3,19.6,29.7,19.6z M38.2,23.9
			c0,0,0-2.9-2.9-2.9c-0.7,0-11.4,0-11.4,0s-2.9,0-2.9,2.9v10c0,2.9,2.9,2.9,2.9,2.9V51h11.4V36.7c0,0,2.9,0,2.9-2.9
			C38.2,31,38.2,23.9,38.2,23.9z"/>
	</g>
</g>
<path class="st0" d="M54.3,28.4c-0.1-0.7-0.9-1.1-1.5-1.1c-2.2,0-4.2-1.2-5-3.2c-0.8-2-0.3-4.3,1.3-5.7c0.5-0.5,0.6-1.2,0.1-1.8
	c-1.1-1.4-2.4-2.6-3.8-3.7c-0.5-0.4-1.4-0.4-1.8,0.1c-1.4,1.5-4,2.1-6,1.3c-2.1-0.8-3.4-2.9-3.2-5C34.5,8.6,34,8,33.2,8
	c-1.8-0.2-3.6-0.2-5.4,0c-0.7,0.1-1.2,0.7-1.2,1.3c0.1,2.2-1.2,4.1-3.3,5c-2,0.8-4.5,0.2-5.9-1.3c-0.5-0.5-1.3-0.6-1.8-0.1
	c-1.4,1.1-2.7,2.3-3.9,3.7c-0.4,0.5-0.4,1.3,0.1,1.8c1.7,1.5,2.2,3.8,1.3,5.8c-0.8,1.9-2.9,3.1-5.2,3.1c-0.8,0-1.3,0.5-1.4,1.1
	c-0.2,1.7-0.2,3.5,0,5.3c0.1,0.7,0.9,1.1,1.6,1.1c2.1-0.1,4.1,1.2,4.9,3.2c0.8,2,0.3,4.3-1.3,5.7c-0.5,0.5-0.6,1.2-0.1,1.7
	c1.1,1.4,2.4,2.6,3.8,3.7c0.6,0.4,1.4,0.4,1.8-0.1c1.4-1.5,4-2.1,6-1.3c2.1,0.8,3.4,2.9,3.2,5c0,0.7,0.5,1.3,1.2,1.4
	c0.9,0.1,1.8,0.2,2.8,0.2c0.9,0,1.8,0,2.6-0.1c0.7-0.1,1.2-0.7,1.2-1.3c-0.1-2.2,1.2-4.1,3.3-5c2-0.8,4.5-0.2,5.9,1.3
	c0.5,0.5,1.3,0.6,1.8,0.1c1.4-1.1,2.7-2.3,3.9-3.7c0.4-0.5,0.4-1.3-0.1-1.8c-1.7-1.5-2.2-3.8-1.3-5.8c0.8-1.9,2.8-3.1,4.9-3.1l0.3,0
	c0.7,0.1,1.3-0.5,1.4-1.1C54.5,32,54.5,30.2,54.3,28.4z M30.5,44.4c-7.6,0-13.8-6-13.8-13.4s6.2-13.4,13.8-13.4s13.8,6,13.8,13.4
	c0,2.5-0.7,4.9-2,6.9L36.3,32c0.4-1,0.7-2.1,0.7-3.2c0-2.2-0.9-4.3-2.5-5.8c-1.6-1.5-3.7-2.4-6-2.4c-0.8,0-1.5,0.1-2.2,0.3
	c-0.3,0.1-0.6,0.3-0.7,0.6c-0.1,0.3,0,0.6,0.3,0.9c0,0,3,2.9,4,3.9c0.1,0.1,0.1,0.3,0.1,0.4l0,0.1c-0.1,1.1-0.3,2.3-0.5,2.8
	c0,0,0,0-0.1,0.1c0,0,0,0-0.1,0.1c-0.5,0.2-1.9,0.4-3,0.4l0,0l-0.1,0c0,0,0,0,0,0c-0.1,0-0.3,0-0.5-0.2c-1-1-3.9-3.8-3.9-3.8
	C21.6,26,21.3,26,21.2,26c-0.4,0-0.8,0.3-0.9,0.7c-0.8,2.8,0,5.9,2.2,8c1.6,1.5,3.7,2.4,6,2.4c1.2,0,2.3-0.2,3.3-0.6l6.1,5.9
	C35.8,43.6,33.2,44.4,30.5,44.4z"/>
<path class="st0" d="M43.9,36.2v-6H29v-6h14.9v-6l9,9L43.9,36.2z M40.9,33.2v12H26v9L8,45.2v-39h32.9v15h-3v-12H14l12,6v27h12v-9
	H40.9z"/>
</svg>
