<?xml version="1.0" encoding="utf-8"?>
<!-- Generator: Adobe Illustrator 21.0.0, SVG Export Plug-In . SVG Version: 6.00 Build 0)  -->
<svg version="1.1" id="Слой_1" xmlns="http://www.w3.org/2000/svg" xmlns:xlink="http://www.w3.org/1999/xlink" x="0px" y="0px"
	 viewBox="0 0 60 60" style="enable-background:new 0 0 60 60;" xml:space="preserve">
<style type="text/css">
	.st0{display:none;fill-rule:evenodd;clip-rule:evenodd;}
</style>
<path class="st0" d="M13.6,5.4L49,29.7L13.6,54V5.4z"/>
<g>
	<g>
		<path d="M46.7,13.2c-4.6-4.6-10.6-7.1-17-7.1c-6.4,0-12.5,2.5-17,7.1c-4.6,4.6-7.1,10.6-7.1,17c0,6.4,2.5,12.5,7.1,17
			c4.6,4.6,10.6,7.1,17,7.1c6.4,0,12.5-2.5,17-7.1c4.6-4.6,7.1-10.6,7.1-17C53.8,23.8,51.3,17.7,46.7,13.2z M29.7,48.6
			c-10.1,0-18.4-8.2-18.4-18.4s8.2-18.4,18.4-18.4c10.1,0,18.4,8.2,18.4,18.4C48,40.3,39.8,48.6,29.7,48.6z M29.7,14.7
			c-8.6,0-15.5,7-15.5,15.5s7,15.5,15.5,15.5c8.6,0,15.5-7,15.5-15.5C45.2,21.7,38.2,14.7,29.7,14.7z M33.2,37.1
			c-0.6,0.5-1.3,0.9-2.2,1.1v2.2c0,0.8-0.6,1.4-1.4,1.4c-0.8,0-1.4-0.6-1.4-1.4v-2.2c-0.8-0.1-1.6-0.4-2.3-0.8
			c-1-0.6-1.5-1.2-1.5-1.8c0-0.3,0.1-0.7,0.4-1c0.3-0.3,0.5-0.5,0.9-0.5c0.2,0,0.4,0.1,0.6,0.3c0.2,0.2,0.5,0.4,0.7,0.6
			c0.2,0.2,0.5,0.4,1,0.6c0.4,0.2,0.9,0.3,1.4,0.3c0.7,0,1.3-0.2,1.7-0.5c0.5-0.3,0.7-0.8,0.7-1.4c0-0.4-0.1-0.8-0.4-1.2
			c-0.3-0.3-0.6-0.6-1-0.8c-0.4-0.2-0.9-0.4-1.4-0.7c-0.5-0.2-1-0.4-1.5-0.7c-0.5-0.3-1-0.6-1.4-0.9c-0.4-0.3-0.7-0.8-1-1.3
			c-0.3-0.5-0.4-1.2-0.4-1.9c0-0.8,0.2-1.5,0.5-2.1c0.3-0.6,0.7-1.1,1.2-1.4c0.5-0.3,1.1-0.6,1.6-0.7v-2.5c0-0.8,0.6-1.4,1.4-1.4
			c0.8,0,1.4,0.6,1.4,1.4v2.3c0.1,0,0.2,0,0.3,0c0.4,0.1,0.9,0.1,1.3,0.3c0.5,0.1,0.9,0.3,1.2,0.6c0.3,0.3,0.4,0.5,0.4,0.9
			c0,0.3-0.1,0.7-0.3,1c-0.2,0.3-0.5,0.5-0.8,0.5c-0.1,0-0.5-0.1-1.1-0.4c-0.6-0.3-1.2-0.4-1.9-0.4c-0.8,0-1.4,0.1-1.8,0.4
			c-0.4,0.3-0.6,0.7-0.6,1.2c0,0.4,0.2,0.8,0.5,1.1c0.3,0.3,0.8,0.6,1.3,0.8c0.5,0.2,1.1,0.4,1.7,0.7c0.6,0.3,1.2,0.6,1.7,1
			c0.5,0.3,0.9,0.8,1.3,1.5c0.3,0.7,0.5,1.4,0.5,2.3C34.6,35.2,34.1,36.3,33.2,37.1z"/>
	</g>
</g>
</svg>
