<?xml version="1.0" encoding="utf-8"?>
<!-- Generator: Adobe Illustrator 21.0.0, SVG Export Plug-In . SVG Version: 6.00 Build 0)  -->
<svg version="1.1" id="Слой_1" xmlns="http://www.w3.org/2000/svg" xmlns:xlink="http://www.w3.org/1999/xlink" x="0px" y="0px"
	 viewBox="0 0 60 60" style="enable-background:new 0 0 60 60;" xml:space="preserve">
<style type="text/css">
	.st0{display:none;}
</style>
<path class="st0" d="M8.1,7.7v43.7h43.7V7.7H8.1z M45.3,31H31.4v13.8h-2.9V31H14.7v-2.9h13.8V14.2h2.9v13.8h13.8V31z"/>
<g>
	<g>
		<path d="M37.4,17.2l0-11.2H12.5v48h36V17.2L37.4,17.2z M25.3,25l6,6.1l6.4-6.6h-2.7v-2.8h7.4v7.6h-2.8v-2.8l-8.4,8.5l-6-6.1
			l-4.9,5l-2-2L25.3,25z M42.6,46.4H18.5v-2.8h24.1V46.4z M42.6,40.8H18.5V38h24.1V40.8z M47.7,14.4l-7.5-7.8l0,7.8L47.7,14.4z"/>
	</g>
</g>
</svg>
