<?xml version="1.0" encoding="utf-8"?>
<!-- Generator: Adobe Illustrator 21.0.0, SVG Export Plug-In . SVG Version: 6.00 Build 0)  -->
<svg version="1.1" id="Слой_1" xmlns="http://www.w3.org/2000/svg" xmlns:xlink="http://www.w3.org/1999/xlink" x="0px" y="0px"
	 viewBox="0 0 60 60" style="enable-background:new 0 0 60 60;" xml:space="preserve">
<style type="text/css">
	.st0{display:none;}
</style>
<path class="st0" d="M8.1,7.7v43.7h43.7V7.7H8.1z M45.3,31H31.4v13.8h-2.9V31H14.7v-2.9h13.8V14.2h2.9v13.8h13.8V31z"/>
<g>
	<g>
		<path d="M35.7,36.8c0,2.6,2.1,4.7,4.7,4.7h14.1v-9.4H40.4C37.8,32.1,35.7,34.2,35.7,36.8z M42,36.8c0,0.9-0.7,1.6-1.6,1.6
			c-0.9,0-1.6-0.7-1.6-1.6c0-0.9,0.7-1.6,1.6-1.6C41.3,35.2,42,35.9,42,36.8z M32.6,36.8c0-4.3,3.5-7.8,7.8-7.8h7.8v-4.7
			c0-2.6-2.1-4.7-4.7-4.7H8.1c-0.9,0-1.6,0.7-1.6,1.6v31.3c0,0.9,0.7,1.6,1.6,1.6h35.5c2.6,0,4.7-2.1,4.7-4.7v-4.7h-7.8
			C36.1,44.6,32.6,41.1,32.6,36.8z M49.8,19.6L49.8,19.6c1,1.3,1.6,2.9,1.6,4.7V29h3.1v-4.7C54.5,21.7,52.4,19.6,49.8,19.6z
			 M51.4,49.3c0,1.8-0.6,3.4-1.6,4.7h0c2.6,0,4.7-2.1,4.7-4.7v-4.7h-3.1V49.3z M42.1,16.4l-10-10c-0.6-0.6-1.6-0.6-2.2,0l-1.4,1.4
			l8.6,8.6H42.1z M22.7,6.5c-0.6-0.6-1.6-0.6-2.2,0l-10,10h22.2L22.7,6.5z"/>
	</g>
</g>
</svg>
