<?xml version="1.0" encoding="utf-8"?>
<!-- Generator: Adobe Illustrator 21.0.0, SVG Export Plug-In . SVG Version: 6.00 Build 0)  -->
<svg version="1.1" id="Слой_1" xmlns="http://www.w3.org/2000/svg" xmlns:xlink="http://www.w3.org/1999/xlink" x="0px" y="0px"
	 viewBox="0 0 60 60" style="enable-background:new 0 0 60 60;" xml:space="preserve">
<style type="text/css">
	.st0{display:none;}
</style>
<path class="st0" d="M8.1,7.7v43.7h43.7V7.7H8.1z M45.3,31H31.4v13.8h-2.9V31H14.7v-2.9h13.8V14.2h2.9v13.8h13.8V31z"/>
<g>
	<g>
		<path d="M40.4,36.6c-1.4-1.4-3.1-1.4-4.5,0c-1.1,1-2.1,2.1-3.1,3.2c-0.3,0.3-0.5,0.4-0.9,0.2c-0.7-0.4-1.4-0.7-2.1-1.1
			c-3.1-1.9-5.6-4.4-7.9-7.2c-1.1-1.4-2.1-2.9-2.8-4.5c-0.1-0.3-0.1-0.6,0.2-0.8c1.1-1,2.1-2.1,3.1-3.1c1.4-1.5,1.4-3.2,0-4.6
			c-0.8-0.8-1.6-1.6-2.5-2.5c-0.9-0.9-1.7-1.7-2.5-2.5c-1.4-1.4-3.1-1.4-4.5,0c-1.1,1-2.1,2.1-3.2,3.1c-1,0.9-1.5,2.1-1.6,3.5
			c-0.2,2.2,0.4,4.3,1.1,6.3c1.6,4.2,3.9,7.9,6.8,11.3c3.9,4.6,8.5,8.3,14,10.9c2.4,1.2,5,2.1,7.7,2.2c1.9,0.1,3.5-0.4,4.9-1.9
			c0.9-1,1.9-1.9,2.9-2.9c1.4-1.4,1.4-3.2,0-4.6C43.8,40,42.1,38.3,40.4,36.6z M38.7,29.6L42,29c-0.5-3-1.9-5.7-4.1-7.9
			c-2.3-2.3-5.2-3.7-8.3-4.2l-0.5,3.3c2.5,0.3,4.7,1.5,6.4,3.2C37.2,25.2,38.3,27.3,38.7,29.6z M43.8,15.4C40,11.6,35.3,9.2,30,8.5
			l-0.5,3.3c4.6,0.6,8.7,2.7,11.9,5.9c3.1,3.1,5.1,7,5.9,11.3l3.3-0.6C49.7,23.5,47.4,19,43.8,15.4z"/>
	</g>
</g>
</svg>
