<?xml version="1.0" encoding="utf-8"?>
<!-- Generator: Adobe Illustrator 21.0.0, SVG Export Plug-In . SVG Version: 6.00 Build 0)  -->
<svg version="1.1" id="Слой_1" xmlns="http://www.w3.org/2000/svg" xmlns:xlink="http://www.w3.org/1999/xlink" x="0px" y="0px"
	 viewBox="0 0 60 60" style="enable-background:new 0 0 60 60;" xml:space="preserve">
<style type="text/css">
	.st0{display:none;}
</style>
<path class="st0" d="M8.1,7.7v43.7h43.7V7.7H8.1z M45.3,31H31.4v13.8h-2.9V31H14.7v-2.9h13.8V14.2h2.9v13.8h13.8V31z"/>
<g>
	<g>
		<path d="M30.5,17.2c-2.6,0-4.7,2.1-4.7,4.7s2.1,4.7,4.7,4.7c2.6,0,4.7-2.1,4.7-4.7S33.1,17.2,30.5,17.2z M30.5,7
			c-8.3,0-15,6.7-15,14.9c0,6.4,9.5,22.2,15,30.6c5.5-8.4,15-24.3,15-30.6C45.5,13.7,38.8,7,30.5,7z M30.5,31.3
			c-5.2,0-9.5-4.2-9.5-9.4c0-5.2,4.2-9.4,9.5-9.4c5.2,0,9.5,4.2,9.5,9.4C40,27.1,35.7,31.3,30.5,31.3z"/>
	</g>
</g>
</svg>
