<?xml version="1.0" encoding="utf-8"?>
<!-- Generator: Adobe Illustrator 21.0.0, SVG Export Plug-In . SVG Version: 6.00 Build 0)  -->
<svg version="1.1" id="Слой_1" xmlns="http://www.w3.org/2000/svg" xmlns:xlink="http://www.w3.org/1999/xlink" x="0px" y="0px"
	 viewBox="0 0 60 60" style="enable-background:new 0 0 60 60;" xml:space="preserve">
<g>
	<g>
		<path d="M49.8,9.3V6H25v3.3h-6.9v12.5c5.3,2,9.1,7,9.1,12.8c0,3.1-2.1,8.2-6.4,15.5c-0.6,1-1.2,2-1.8,3h16.7V43h3.4v10.1h17.3V9.3
			L49.8,9.3z M35.5,39.6h-6.4v-3.3h6.4V39.6z M35.5,33h-6.4v-3.3h6.4V33z M35.5,26.6h-6.4v-3.3h6.4V26.6z M35.5,20h-6.4v-3.3h6.4V20
			z M45.9,39.6h-6.4v-3.3h6.4V39.6z M45.9,33h-6.4v-3.3h6.4V33z M45.9,26.6h-6.4v-3.3h6.4V26.6z M45.9,20h-6.4v-3.3h6.4V20z
			 M13.2,31.3c-1.9,0-3.4,1.5-3.4,3.3s1.5,3.3,3.4,3.3c1.9,0,3.4-1.5,3.4-3.3S15,31.3,13.2,31.3z M13.2,24.2
			c-5.9,0-10.7,4.7-10.7,10.4C2.5,39,9.3,50.1,13.2,56c3.9-5.9,10.7-17,10.7-21.4C23.9,28.9,19.1,24.2,13.2,24.2z M13.2,41.2
			c-3.7,0-6.7-2.9-6.7-6.6c0-3.6,3-6.6,6.7-6.6c3.7,0,6.7,2.9,6.7,6.6C19.9,38.2,16.9,41.2,13.2,41.2z"/>
	</g>
</g>
</svg>
