<?xml version="1.0" encoding="utf-8"?>
<!-- Generator: Adobe Illustrator 21.0.0, SVG Export Plug-In . SVG Version: 6.00 Build 0)  -->
<svg version="1.1" id="Слой_1" xmlns="http://www.w3.org/2000/svg" xmlns:xlink="http://www.w3.org/1999/xlink" x="0px" y="0px"
	 viewBox="0 0 60 60" style="enable-background:new 0 0 60 60;" xml:space="preserve">
<g>
	<g>
		<path d="M18.5,25.5c-2.4,0-4.3,2-4.3,4.4v11.9c0,2.4,1.9,4.4,4.3,4.4s4.3-2,4.3-4.4V29.9C22.8,27.5,20.9,25.5,18.5,25.5z
			 M11.5,28.7c-1.7,0.6-3,2.2-3,4.2v6.1c0,2,1.3,3.6,3,4.2c-0.1-0.4-0.1-0.8-0.1-1.2V29.9C11.4,29.5,11.4,29.1,11.5,28.7z
			 M41.5,25.5c-2.4,0-4.3,2-4.3,4.4v11.9c0,2.4,1.9,4.4,4.3,4.4c0.4,0,0.8-0.1,1.2-0.2c-0.5,1.8-2.2,3.1-4.1,3.1H34
			c-0.6-1.7-2.2-2.9-4-2.9c-2.4,0-4.3,2-4.3,4.4c0,2.4,1.9,4.4,4.3,4.4c1.9,0,3.4-1.2,4-2.9h4.6c4,0,7.2-3.3,7.2-7.3V29.9
			C45.8,27.5,43.8,25.5,41.5,25.5z M48.5,28.7c0.1,0.4,0.1,0.8,0.1,1.2v11.9c0,0.4-0.1,0.8-0.1,1.2c1.7-0.6,3-2.2,3-4.2v-6.1
			C51.5,30.9,50.2,29.2,48.5,28.7z M30,5C18.1,5,8.5,14.9,8.5,27v0c0.9-0.7,1.8-1.1,2.9-1.4C12.1,15.8,20.2,7.9,30,7.9
			c9.8,0,17.9,7.8,18.6,17.7c1.1,0.2,2.1,0.7,2.9,1.4v0C51.5,14.9,41.9,5,30,5z"/>
	</g>
</g>
</svg>
