<?xml version="1.0" encoding="utf-8"?>
<!-- Generator: Adobe Illustrator 21.0.0, SVG Export Plug-In . SVG Version: 6.00 Build 0)  -->
<svg version="1.1" id="Слой_1" xmlns="http://www.w3.org/2000/svg" xmlns:xlink="http://www.w3.org/1999/xlink" x="0px" y="0px"
	 viewBox="0 0 60 60" style="enable-background:new 0 0 60 60;" xml:space="preserve">
<path d="M30.5,6.1C17.3,6.1,6.6,16.8,6.6,30c0,13.2,10.7,23.9,23.9,23.9c13.2,0,23.9-10.7,23.9-23.9C54.4,16.8,43.7,6.1,30.5,6.1z
	 M40.8,34.5H30.7c0,0-0.1,0-0.1,0c0,0-0.1,0-0.1,0c-0.9,0-1.6-0.7-1.6-1.6V16c0-0.9,0.7-1.7,1.6-1.7c0.9,0,1.6,0.7,1.6,1.7v15.2h8.7
	c0.9,0,1.7,0.7,1.7,1.7C42.5,33.8,41.7,34.5,40.8,34.5z"/>
</svg>
