<?xml version="1.0" encoding="utf-8"?>
<!-- Generator: Adobe Illustrator 21.0.0, SVG Export Plug-In . SVG Version: 6.00 Build 0)  -->
<svg version="1.1" id="Слой_1" xmlns="http://www.w3.org/2000/svg" xmlns:xlink="http://www.w3.org/1999/xlink" x="0px" y="0px"
	 viewBox="0 0 60 60" style="enable-background:new 0 0 60 60;" xml:space="preserve">
<path d="M46,25h-0.9v-4.3c0-7.9-6.4-14.5-14.3-14.7c-0.2,0-0.7,0-0.9,0c-7.9,0.1-14.3,6.8-14.3,14.7V25h-0.9c-1.4,0-2.6,1.5-2.6,3.3
	v21.5c0,1.8,1.2,3.3,2.6,3.3H46c1.4,0,2.6-1.5,2.6-3.3V28.2C48.6,26.4,47.4,25,46,25z M33.3,38.9v6.5c0,0.7-0.6,1.4-1.4,1.4h-3.1
	c-0.8,0-1.4-0.6-1.4-1.4v-6.5c-0.7-0.7-1.2-1.7-1.2-2.8c0-2.1,1.6-3.8,3.7-3.9c0.2,0,0.7,0,0.9,0c2,0.1,3.7,1.9,3.7,3.9
	C34.4,37.3,34,38.2,33.3,38.9z M39,25h-8.2h-0.9h-8.2v-4.3c0-4.7,3.9-8.6,8.6-8.6c4.8,0,8.6,3.9,8.6,8.6L39,25L39,25z"/>
</svg>
