<?xml version="1.0" encoding="utf-8"?>
<!-- Generator: Adobe Illustrator 21.0.0, SVG Export Plug-In . SVG Version: 6.00 Build 0)  -->
<svg version="1.1" id="Слой_1" xmlns="http://www.w3.org/2000/svg" xmlns:xlink="http://www.w3.org/1999/xlink" x="0px" y="0px"
	 viewBox="0 0 60 60" style="enable-background:new 0 0 60 60;" xml:space="preserve">
<path d="M54.6,42.6c0,1.1-0.3,2-0.8,2.9L38.6,28.4l15.1-13.2c0.6,0.9,0.9,2,0.9,3.2V42.6L54.6,42.6z M30.5,31.5l21-18.4
	c-0.9-0.5-1.8-0.8-2.9-0.8H12.4c-1,0-2,0.3-2.9,0.8L30.5,31.5z M36.4,30.4l-4.9,4.3c-0.3,0.2-0.6,0.4-1,0.4s-0.7-0.1-1-0.4l-4.9-4.3
	L9.2,47.7c0.9,0.6,2,0.9,3.2,0.9h36.2c1.2,0,2.3-0.3,3.2-0.9L36.4,30.4z M7.3,15.2c-0.6,0.9-0.9,2-0.9,3.2v24.1c0,1.1,0.3,2,0.8,2.9
	l15.2-17.1L7.3,15.2z"/>
</svg>
