<?xml version="1.0" encoding="utf-8"?>
<!-- Generator: Adobe Illustrator 21.0.0, SVG Export Plug-In . SVG Version: 6.00 Build 0)  -->
<svg version="1.1" id="Слой_1" xmlns="http://www.w3.org/2000/svg" xmlns:xlink="http://www.w3.org/1999/xlink" x="0px" y="0px"
	 viewBox="0 0 60 60" style="enable-background:new 0 0 60 60;" xml:space="preserve">
<path d="M51.3,15.7c2.1-0.3,4-0.8,6-1.7c-1.4,2.2-3.1,4-5.2,5.6c0,0.4,0,0.8,0,1.3c0,3.6-0.7,7.1-2,10.7c-1.3,3.5-3.2,6.8-5.6,9.7
	c-2.4,2.9-5.6,5.3-9.4,7.1c-3.8,1.8-8.1,2.7-12.7,2.7c-5.8,0-11.1-1.6-16-4.8c0.9,0.1,1.7,0.1,2.5,0.1c4.8,0,9.2-1.5,12.9-4.6
	c-2.3,0-4.3-0.7-6-2.1c-1.8-1.4-3-3.2-3.7-5.3c0.7,0.1,1.3,0.2,2,0.2c0.9,0,1.9-0.1,2.8-0.3c-2.5-0.5-4.5-1.8-6-3.7
	c-1.6-2-2.3-4.2-2.3-6.7v-0.2c1.5,0.9,3,1.3,4.7,1.3c-3.1-2.1-4.7-5-4.7-8.8c0-2,0.5-3.7,1.5-5.4c2.6,3.3,5.8,5.9,9.5,7.9
	c3.7,2,7.7,3,12,3.2c-0.2-0.8-0.3-1.6-0.3-2.4c0-2.9,1-5.4,3.1-7.5c2.1-2.1,4.5-3.1,7.4-3.1c3,0,5.6,1.1,7.7,3.3
	c2.4-0.5,4.6-1.3,6.7-2.5C55.1,12.3,53.6,14.3,51.3,15.7L51.3,15.7z"/>
</svg>
